<?xml version="1.0" encoding="UTF-8"?>
<!DOCTYPE svg PUBLIC "-//W3C//DTD SVG 1.1//EN" "http://www.w3.org/Graphics/SVG/1.1/DTD/svg11.dtd">
<svg version="1.2" width="15.08mm" height="12.96mm" viewBox="0 0 1508 1296" preserveAspectRatio="xMidYMid" fill-rule="evenodd" stroke-width="28.222" stroke-linejoin="round" xmlns="http://www.w3.org/2000/svg" xmlns:ooo="http://xml.openoffice.org/svg/export" xmlns:xlink="http://www.w3.org/1999/xlink" xmlns:presentation="http://sun.com/xmlns/staroffice/presentation" xmlns:smil="http://www.w3.org/2001/SMIL20/" xmlns:anim="urn:oasis:names:tc:opendocument:xmlns:animation:1.0" xml:space="preserve">
 <defs class="ClipPathGroup">
  <clipPath id="presentation_clip_path" clipPathUnits="userSpaceOnUse">
   <rect x="0" y="0" width="1508" height="1296"/>
  </clipPath>
  <clipPath id="presentation_clip_path_shrink" clipPathUnits="userSpaceOnUse">
   <rect x="1" y="1" width="1505" height="1294"/>
  </clipPath>
 </defs>
 <defs class="TextShapeIndex">
  <g ooo:slide="id1" ooo:id-list="id3 id4 id5"/>
 </defs>
 <defs class="EmbeddedBulletChars">
  <g id="bullet-char-template-57356" transform="scale(0.00048828125,-0.00048828125)">
   <path d="M 580,1141 L 1163,571 580,0 -4,571 580,1141 Z"/>
  </g>
  <g id="bullet-char-template-57354" transform="scale(0.00048828125,-0.00048828125)">
   <path d="M 8,1128 L 1137,1128 1137,0 8,0 8,1128 Z"/>
  </g>
  <g id="bullet-char-template-10146" transform="scale(0.00048828125,-0.00048828125)">
   <path d="M 174,0 L 602,739 174,1481 1456,739 174,0 Z M 1358,739 L 309,1346 659,739 1358,739 Z"/>
  </g>
  <g id="bullet-char-template-10132" transform="scale(0.00048828125,-0.00048828125)">
   <path d="M 2015,739 L 1276,0 717,0 1260,543 174,543 174,936 1260,936 717,1481 1274,1481 2015,739 Z"/>
  </g>
  <g id="bullet-char-template-10007" transform="scale(0.00048828125,-0.00048828125)">
   <path d="M 0,-2 C -7,14 -16,27 -25,37 L 356,567 C 262,823 215,952 215,954 215,979 228,992 255,992 264,992 276,990 289,987 310,991 331,999 354,1012 L 381,999 492,748 772,1049 836,1024 860,1049 C 881,1039 901,1025 922,1006 886,937 835,863 770,784 769,783 710,716 594,584 L 774,223 C 774,196 753,168 711,139 L 727,119 C 717,90 699,76 672,76 641,76 570,178 457,381 L 164,-76 C 142,-110 111,-127 72,-127 30,-127 9,-110 8,-76 1,-67 -2,-52 -2,-32 -2,-23 -1,-13 0,-2 Z"/>
  </g>
  <g id="bullet-char-template-10004" transform="scale(0.00048828125,-0.00048828125)">
   <path d="M 285,-33 C 182,-33 111,30 74,156 52,228 41,333 41,471 41,549 55,616 82,672 116,743 169,778 240,778 293,778 328,747 346,684 L 369,508 C 377,444 397,411 428,410 L 1163,1116 C 1174,1127 1196,1133 1229,1133 1271,1133 1292,1118 1292,1087 L 1292,965 C 1292,929 1282,901 1262,881 L 442,47 C 390,-6 338,-33 285,-33 Z"/>
  </g>
  <g id="bullet-char-template-9679" transform="scale(0.00048828125,-0.00048828125)">
   <path d="M 813,0 C 632,0 489,54 383,161 276,268 223,411 223,592 223,773 276,916 383,1023 489,1130 632,1184 813,1184 992,1184 1136,1130 1245,1023 1353,916 1407,772 1407,592 1407,412 1353,268 1245,161 1136,54 992,0 813,0 Z"/>
  </g>
  <g id="bullet-char-template-8226" transform="scale(0.00048828125,-0.00048828125)">
   <path d="M 346,457 C 273,457 209,483 155,535 101,586 74,649 74,723 74,796 101,859 155,911 209,963 273,989 346,989 419,989 480,963 531,910 582,859 608,796 608,723 608,648 583,586 532,535 482,483 420,457 346,457 Z"/>
  </g>
  <g id="bullet-char-template-8211" transform="scale(0.00048828125,-0.00048828125)">
   <path d="M -4,459 L 1135,459 1135,606 -4,606 -4,459 Z"/>
  </g>
  <g id="bullet-char-template-61548" transform="scale(0.00048828125,-0.00048828125)">
   <path d="M 173,740 C 173,903 231,1043 346,1159 462,1274 601,1332 765,1332 928,1332 1067,1274 1183,1159 1299,1043 1357,903 1357,740 1357,577 1299,437 1183,322 1067,206 928,148 765,148 601,148 462,206 346,322 231,437 173,577 173,740 Z"/>
  </g>
 </defs>
 <g>
  <g id="id2" class="Master_Slide">
   <g id="bg-id2" class="Background"/>
   <g id="bo-id2" class="BackgroundObjects"/>
  </g>
 </g>
 <g class="SlideGroup">
  <g>
   <g id="container-id1">
    <g id="id1" class="Slide" clip-path="url(#presentation_clip_path)">
     <g class="Page">
      <g class="com.sun.star.drawing.ClosedBezierShape">
       <g id="id3">
        <rect class="BoundingBox" stroke="none" fill="none" x="332" y="237" width="838" height="591"/>
        <path fill="rgb(87,160,238)" stroke="none" d="M 951,389 C 924,389 901,394 877,402 869,312 795,238 703,238 605,238 526,317 526,415 526,436 531,457 537,476 529,473 518,473 510,473 412,473 333,552 333,649 333,744 410,824 505,826 L 959,826 C 1075,813 1168,721 1168,605 1168,484 1070,389 951,389 Z"/>
       </g>
      </g>
      <g class="com.sun.star.drawing.ClosedBezierShape">
       <g id="id4">
        <rect class="BoundingBox" stroke="none" fill="none" x="316" y="221" width="870" height="623"/>
        <path fill="none" stroke="rgb(255,255,255)" stroke-width="32" stroke-linejoin="round" d="M 1168,605 C 1168,484 1070,389 951,389 924,389 901,394 877,402 869,312 795,238 703,238 605,238 526,317 526,415 526,436 531,457 537,476 529,473 518,473 510,473 412,473 333,552 333,649 333,744 410,824 505,826 L 959,826 C 1075,813 1168,721 1168,605 Z"/>
       </g>
      </g>
      <g class="com.sun.star.drawing.CustomShape">
       <g id="id5">
        <rect class="BoundingBox" stroke="none" fill="none" x="609" y="456" width="293" height="293"/>
        <path fill="rgb(232,96,96)" stroke="none" d="M 895,602 C 895,627 889,651 876,672 864,693 846,711 825,723 804,736 780,742 755,742 730,742 706,736 685,723 664,711 646,693 634,672 621,651 615,627 615,602 615,577 621,553 634,532 646,511 664,493 685,481 706,468 730,462 755,462 780,462 804,468 825,481 846,493 864,511 876,532 889,553 895,577 895,602 L 895,602 Z M 669,541 L 666,546 664,550 661,555 659,559 657,564 655,569 654,574 652,579 651,585 651,590 650,595 650,600 650,606 650,611 651,616 652,621 653,626 654,631 656,636 658,641 660,646 662,651 665,655 667,660 670,664 674,668 677,672 681,676 684,680 688,683 693,686 697,689 701,692 706,695 711,697 715,699 720,701 725,703 730,704 736,705 741,706 746,707 751,707 756,707 762,707 767,706 772,706 777,705 782,703 787,702 792,700 797,698 802,696 807,693 811,691 816,688 669,541 Z M 841,663 L 844,658 846,654 849,649 851,644 853,639 855,634 856,629 858,624 859,619 859,614 860,609 860,603 860,598 860,593 859,588 858,583 857,577 856,572 854,567 852,562 850,558 848,553 845,548 842,544 839,540 836,535 833,531 829,528 825,524 821,521 817,517 813,514 808,512 804,509 799,507 794,505 789,503 784,501 779,500 774,499 769,498 764,497 759,497 753,497 748,497 743,498 738,498 732,499 727,501 722,502 717,504 712,506 708,508 703,511 699,513 694,516 841,663 Z"/>
        <path fill="none" stroke="rgb(255,255,255)" stroke-width="11" stroke-linejoin="round" d="M 895,602 C 895,627 889,651 876,672 864,693 846,711 825,723 804,736 780,742 755,742 730,742 706,736 685,723 664,711 646,693 634,672 621,651 615,627 615,602 615,577 621,553 634,532 646,511 664,493 685,481 706,468 730,462 755,462 780,462 804,468 825,481 846,493 864,511 876,532 889,553 895,577 895,602 L 895,602 Z"/>
        <path fill="none" stroke="rgb(255,255,255)" stroke-width="11" stroke-linejoin="round" d="M 669,541 L 666,546 664,550 661,555 659,559 657,564 655,569 654,574 652,579 651,585 651,590 650,595 650,600 650,606 650,611 651,616 652,621 653,626 654,631 656,636 658,641 660,646 662,651 665,655 667,660 670,664 674,668 677,672 681,676 684,680 688,683 693,686 697,689 701,692 706,695 711,697 715,699 720,701 725,703 730,704 736,705 741,706 746,707 751,707 756,707 762,707 767,706 772,706 777,705 782,703 787,702 792,700 797,698 802,696 807,693 811,691 816,688 669,541 Z"/>
        <path fill="none" stroke="rgb(255,255,255)" stroke-width="11" stroke-linejoin="round" d="M 841,663 L 844,658 846,654 849,649 851,644 853,639 855,634 856,629 858,624 859,619 859,614 860,609 860,603 860,598 860,593 859,588 858,583 857,577 856,572 854,567 852,562 850,558 848,553 845,548 842,544 839,540 836,535 833,531 829,528 825,524 821,521 817,517 813,514 808,512 804,509 799,507 794,505 789,503 784,501 779,500 774,499 769,498 764,497 759,497 753,497 748,497 743,498 738,498 732,499 727,501 722,502 717,504 712,506 708,508 703,511 699,513 694,516 841,663 Z"/>
       </g>
      </g>
     </g>
    </g>
   </g>
  </g>
 </g>
</svg>